<svg width="24" height="24" viewBox="0 0 24 24" fill="none" xmlns="http://www.w3.org/2000/svg">
<path d="M12.0045 5.84695C8.59952 5.84695 5.85152 8.59495 5.85152 11.9999C5.85152 15.4049 8.59952 18.1529 12.0045 18.1529C15.4095 18.1529 18.1575 15.4049 18.1575 11.9999C18.1575 8.59495 15.4095 5.84695 12.0045 5.84695ZM12.0045 15.9989C9.80252 15.9989 8.00552 14.2019 8.00552 11.9999C8.00552 9.79795 9.80252 8.00095 12.0045 8.00095C14.2065 8.00095 16.0035 9.79795 16.0035 11.9999C16.0035 14.2019 14.2065 15.9989 12.0045 15.9989ZM18.4095 4.16095C17.6145 4.16095 16.9725 4.80295 16.9725 5.59795C16.9725 6.39295 17.6145 7.03495 18.4095 7.03495C19.2045 7.03495 19.8465 6.39595 19.8465 5.59795C19.8468 5.40917 19.8097 5.2222 19.7376 5.04775C19.6655 4.8733 19.5596 4.71479 19.4262 4.58131C19.2927 4.44782 19.1342 4.34198 18.9597 4.26985C18.7853 4.19772 18.5983 4.16071 18.4095 4.16095ZM23.9985 11.9999C23.9985 10.3439 24.0135 8.70295 23.9205 7.04995C23.8275 5.12995 23.3895 3.42595 21.9855 2.02195C20.5785 0.614949 18.8775 0.179949 16.9575 0.0869489C15.3015 -0.00605107 13.6605 0.00894897 12.0075 0.00894897C10.3515 0.00894897 8.71052 -0.00605107 7.05752 0.0869489C5.13752 0.179949 3.43352 0.617949 2.02952 2.02195C0.622517 3.42895 0.187517 5.12995 0.0945173 7.04995C0.00151729 8.70595 0.0165173 10.3469 0.0165173 11.9999C0.0165173 13.6529 0.00151729 15.2969 0.0945173 16.9499C0.187517 18.8699 0.625517 20.5739 2.02952 21.9779C3.43652 23.3849 5.13752 23.8199 7.05752 23.9129C8.71352 24.0059 10.3545 23.9909 12.0075 23.9909C13.6635 23.9909 15.3045 24.0059 16.9575 23.9129C18.8775 23.8199 20.5815 23.3819 21.9855 21.9779C23.3925 20.5709 23.8275 18.8699 23.9205 16.9499C24.0165 15.2969 23.9985 13.6559 23.9985 11.9999ZM21.3585 19.0739C21.1395 19.6199 20.8755 20.0279 20.4525 20.4479C20.0295 20.8709 19.6245 21.1349 19.0785 21.3539C17.5005 21.9809 13.7535 21.8399 12.0045 21.8399C10.2555 21.8399 6.50552 21.9809 4.92752 21.3569C4.38152 21.1379 3.97352 20.8739 3.55352 20.4509C3.13052 20.0279 2.86652 19.6229 2.64752 19.0769C2.02352 17.4959 2.16452 13.7489 2.16452 11.9999C2.16452 10.2509 2.02352 6.50095 2.64752 4.92295C2.86652 4.37695 3.13052 3.96895 3.55352 3.54895C3.97652 3.12895 4.38152 2.86195 4.92752 2.64295C6.50552 2.01895 10.2555 2.15995 12.0045 2.15995C13.7535 2.15995 17.5035 2.01895 19.0815 2.64295C19.6275 2.86195 20.0355 3.12595 20.4555 3.54895C20.8785 3.97195 21.1425 4.37695 21.3615 4.92295C21.9855 6.50095 21.8445 10.2509 21.8445 11.9999C21.8445 13.7489 21.9855 17.4959 21.3585 19.0739Z" fill="#E61F5A"/>
</svg>
