<svg width="24" height="26" viewBox="0 0 24 26" fill="none" xmlns="http://www.w3.org/2000/svg">
<path d="M23.709 1.21621C23.5741 1.07651 23.4036 0.979791 23.2176 0.937417C23.0315 0.895044 22.8378 0.908781 22.659 0.977014L0.659024 9.29701C0.469292 9.37186 0.305944 9.50496 0.190675 9.67865C0.0754064 9.85233 0.0136719 10.0584 0.0136719 10.2694C0.0136719 10.4805 0.0754064 10.6865 0.190675 10.8602C0.305944 11.0339 0.469292 11.167 0.659024 11.2418L10.259 15.2354L14.099 25.2194C14.1712 25.4081 14.2948 25.5706 14.4548 25.6871C14.6147 25.8035 14.8039 25.8687 14.999 25.8746C15.2011 25.8703 15.3972 25.8024 15.5614 25.6799C15.7257 25.5573 15.8503 25.3859 15.919 25.1882L23.919 2.30821C23.9872 2.12421 24.0036 1.92386 23.9664 1.73052C23.9292 1.53718 23.84 1.35881 23.709 1.21621ZM14.999 21.9226L12.209 14.6426L16.999 9.66101L15.589 8.19461L10.759 13.2178L3.79902 10.2746L21.329 3.69141L14.999 21.9226Z" fill="#8EC2F2"/>
</svg>
